<svg xmlns="http://www.w3.org/2000/svg" width="512" height="512" viewBox="0 0 512 512" version="1.1"><path d="M 511.492 254.500 C 511.492 394.200, 511.608 451.499, 511.750 381.830 C 511.892 312.162, 511.892 197.862, 511.750 127.830 C 511.608 57.799, 511.492 114.800, 511.492 254.500 M 248.340 142.376 C 239.147 145.381, 233.305 152.645, 232.308 162.309 C 231.561 169.541, 233.298 174.335, 238.794 180.211 C 250.349 192.564, 271.039 189.123, 277.447 173.782 C 279.358 169.207, 279.462 160.039, 277.652 155.718 C 273.007 144.635, 259.808 138.627, 248.340 142.376 M 188.045 157.750 C 156.477 158.120, 159 156.259, 159 179.174 C 159 189.725, 159.373 196, 160 196 C 160.550 196, 161.084 193.188, 161.187 189.750 C 161.289 186.313, 161.441 182.150, 161.524 180.500 C 161.607 178.850, 161.748 174.270, 161.838 170.321 C 162.083 159.494, 160.697 160, 190.071 160 C 211.563 160, 215 159.793, 215 158.500 C 215 157.675, 214.438 157.104, 213.750 157.231 C 213.063 157.359, 201.495 157.592, 188.045 157.750 M 186.278 177.479 C 179.548 179.368, 175.280 182.213, 171.198 187.531 C 167.360 192.529, 166 196.652, 166 203.284 C 166 206.658, 165.347 208.964, 163.800 211.057 C 162.481 212.841, 161.600 215.490, 161.600 217.674 C 161.600 220.630, 162.296 221.917, 165.300 224.514 C 167.859 226.726, 169 228.542, 169 230.406 C 169 236.150, 175.332 244.524, 182.500 248.260 C 185.248 249.693, 189.003 250.479, 194.500 250.773 C 202.039 251.175, 202.875 251.005, 209 247.829 C 216.350 244.016, 221.571 237.534, 222.632 230.903 C 223.033 228.393, 223.889 226.852, 225.097 226.469 C 230.529 224.745, 232.671 216.395, 228.909 211.612 C 227.169 209.399, 226.930 208.145, 227.483 204.122 C 228.327 197.988, 226.214 192.506, 222.331 190.752 C 220.806 190.064, 217.999 187.778, 216.093 185.672 C 208.935 177.767, 196.967 174.478, 186.278 177.479 M 309.500 180.606 C 291.783 183.450, 287.620 184.834, 296.500 184.928 C 307.138 185.041, 328 181.063, 328 178.922 C 328 177.703, 327.032 177.791, 309.500 180.606 M 252 210.345 C 252 226.991, 252.023 226.960, 239.346 227.543 C 232.452 227.860, 230.429 228.287, 230.177 229.475 C 229.904 230.763, 231.429 231, 239.974 231 C 249.635 231, 250.207 230.880, 252.548 228.354 C 254.914 225.801, 255 225.204, 255 211.354 C 255 199.262, 254.764 197, 253.500 197 C 252.242 197, 252 199.149, 252 210.345 M 297.458 202.642 C 295.897 207.798, 292.360 213.232, 289.358 215.088 C 287.511 216.229, 286.009 217.464, 286.020 217.832 C 286.157 222.445, 288.423 232.901, 289.914 235.794 C 292.576 240.961, 297.517 245.708, 303.453 248.804 C 307.498 250.914, 309.889 251.437, 315.500 251.440 C 324.165 251.445, 328.614 249.953, 335.006 244.901 C 341.362 239.877, 345.092 232.729, 345.770 224.271 C 346.226 218.601, 346.002 217.597, 343.424 213.751 C 341.856 211.413, 340.531 209.399, 340.479 209.275 C 340.427 209.152, 336.948 209.751, 332.748 210.608 C 321.747 212.851, 313.138 210.689, 300.745 202.569 C 298.118 200.847, 298 200.850, 297.458 202.642 M 178.782 259.553 C 165.666 262.733, 153.696 271.465, 148.125 281.918 C 143.279 291.009, 142.037 298.754, 142.018 320 L 142.002 338.500 148.751 338.382 C 152.463 338.317, 162.137 338.204, 170.250 338.132 L 185 338 185 318 C 185 299.333, 185.133 297.867, 187 296 C 189.517 293.483, 190.492 293.492, 193.054 296.054 C 195.003 298.003, 195.094 299.081, 194.835 317.304 C 194.647 330.582, 194.924 337.146, 195.735 338.597 C 196.635 340.208, 196.628 340.995, 195.703 341.994 C 194.816 342.952, 194.810 343.119, 195.681 342.630 C 196.330 342.266, 197.187 342.494, 197.585 343.138 C 198.026 343.850, 197.876 344.042, 197.205 343.627 C 196.597 343.251, 195.612 343.857, 195.015 344.972 C 194.418 346.087, 193.332 347, 192.602 347 C 190.873 347, 182 356.487, 182 358.335 C 182 362.495, 182.082 362.500, 254.119 362.500 C 317.389 362.500, 323.065 362.364, 324.619 360.810 C 326.158 359.270, 326.170 358.914, 324.755 356.810 C 323.901 355.539, 321.587 352.762, 319.613 350.637 C 315.312 346.009, 311.544 340.123, 312.360 339.307 C 312.683 338.984, 325.589 338.696, 341.039 338.667 L 369.130 338.614 368.815 315.557 L 368.500 292.500 365.335 285.820 C 357.569 269.428, 341.821 259.717, 320.778 258.345 C 297.731 256.843, 278.307 266.668, 269.494 284.286 C 263.887 295.493, 263.313 295, 281.980 295 C 308.310 295, 310 296.463, 310 319.257 C 310 331.638, 309.742 334.081, 308.250 335.833 C 307.287 336.962, 305.825 337.966, 305 338.062 C 304.175 338.158, 280.453 338.184, 252.285 338.118 L 201.070 338 199.850 335.750 C 197.989 332.320, 198.628 304.252, 200.637 301.166 C 203.850 296.230, 208.979 295.046, 227.250 295.022 L 244 295 244 292.634 C 244 291.333, 242.401 287.073, 240.447 283.167 C 234.487 271.254, 223.388 262.954, 208.824 259.520 C 201.030 257.683, 186.429 257.699, 178.782 259.553 M 212.357 305.975 C 208.790 307.442, 207 311.018, 207 316.675 C 207 323.012, 208.412 326.411, 211.657 327.890 C 214.911 329.372, 291.720 329.437, 295.603 327.961 C 299.859 326.343, 300.933 324.119, 300.968 316.861 C 300.993 311.782, 300.551 309.667, 299.089 307.861 L 297.178 305.500 255.839 305.297 C 233.103 305.185, 213.536 305.490, 212.357 305.975 M 213.969 313.059 C 212.749 315.338, 213.536 320.595, 215.256 321.659 C 215.863 322.033, 233.707 322.235, 254.910 322.106 C 283.325 321.933, 293.660 321.560, 294.215 320.686 C 295.390 318.838, 295.131 313.531, 293.800 312.200 C 292.908 311.308, 282.652 311, 253.835 311 C 215.726 311, 215.052 311.035, 213.969 313.059 M 226.500 344 L 218.500 344.633 226.500 345.009 C 230.900 345.215, 235.625 345.281, 237 345.154 C 238.375 345.028, 242.950 344.829, 247.167 344.712 C 251.383 344.595, 255.171 344.163, 255.583 343.750 C 256.437 342.897, 238.492 343.051, 226.500 344 M 260.264 343.718 C 261.784 343.947, 264.034 343.941, 265.264 343.704 C 266.494 343.467, 265.250 343.279, 262.500 343.286 C 259.750 343.294, 258.744 343.488, 260.264 343.718 M 275.663 344.222 C 277.808 344.912, 280.063 344.912, 282.663 344.223 C 286.277 343.266, 286.093 343.207, 279.500 343.205 C 273.347 343.204, 272.883 343.327, 275.663 344.222 M 299.784 344.184 C 301.438 345.838, 304.608 345.908, 308.868 344.385 C 312.481 343.094, 312.464 343.088, 305.550 343.044 C 300.195 343.010, 298.872 343.272, 299.784 344.184" stroke="none" fill="#b6f9e1" fill-rule="evenodd"/><path d="M 0 256.002 L 0 512.004 256.250 511.752 L 512.500 511.500 512.752 255.750 L 513.004 0 256.502 0 L 0 0 0 256.002 M 0.492 256.500 C 0.492 397.300, 0.608 454.751, 0.750 384.170 C 0.892 313.588, 0.892 198.388, 0.750 128.170 C 0.608 57.951, 0.492 115.700, 0.492 256.500 M 511.492 254.500 C 511.492 394.200, 511.608 451.499, 511.750 381.830 C 511.892 312.162, 511.892 197.862, 511.750 127.830 C 511.608 57.799, 511.492 114.800, 511.492 254.500 M 248.340 142.376 C 239.147 145.381, 233.305 152.645, 232.308 162.309 C 231.561 169.541, 233.298 174.335, 238.794 180.211 C 250.349 192.564, 271.039 189.123, 277.447 173.782 C 279.358 169.207, 279.462 160.039, 277.652 155.718 C 273.007 144.635, 259.808 138.627, 248.340 142.376 M 188.045 157.750 C 156.477 158.120, 159 156.259, 159 179.174 C 159 189.725, 159.373 196, 160 196 C 160.550 196, 161.084 193.188, 161.187 189.750 C 161.289 186.313, 161.441 182.150, 161.524 180.500 C 161.607 178.850, 161.748 174.270, 161.838 170.321 C 162.083 159.494, 160.697 160, 190.071 160 C 211.563 160, 215 159.793, 215 158.500 C 215 157.675, 214.438 157.104, 213.750 157.231 C 213.063 157.359, 201.495 157.592, 188.045 157.750 M 186.278 177.479 C 179.548 179.368, 175.280 182.213, 171.198 187.531 C 167.360 192.529, 166 196.652, 166 203.284 C 166 206.658, 165.347 208.964, 163.800 211.057 C 162.481 212.841, 161.600 215.490, 161.600 217.674 C 161.600 220.630, 162.296 221.917, 165.300 224.514 C 167.859 226.726, 169 228.542, 169 230.406 C 169 236.150, 175.332 244.524, 182.500 248.260 C 185.248 249.693, 189.003 250.479, 194.500 250.773 C 202.039 251.175, 202.875 251.005, 209 247.829 C 216.350 244.016, 221.571 237.534, 222.632 230.903 C 223.033 228.393, 223.889 226.852, 225.097 226.469 C 230.529 224.745, 232.671 216.395, 228.909 211.612 C 227.169 209.399, 226.930 208.145, 227.483 204.122 C 228.327 197.988, 226.214 192.506, 222.331 190.752 C 220.806 190.064, 217.999 187.778, 216.093 185.672 C 208.935 177.767, 196.967 174.478, 186.278 177.479 M 309.500 180.606 C 291.783 183.450, 287.620 184.834, 296.500 184.928 C 307.138 185.041, 328 181.063, 328 178.922 C 328 177.703, 327.032 177.791, 309.500 180.606 M 252 210.345 C 252 226.991, 252.023 226.960, 239.346 227.543 C 232.452 227.860, 230.429 228.287, 230.177 229.475 C 229.904 230.763, 231.429 231, 239.974 231 C 249.635 231, 250.207 230.880, 252.548 228.354 C 254.914 225.801, 255 225.204, 255 211.354 C 255 199.262, 254.764 197, 253.500 197 C 252.242 197, 252 199.149, 252 210.345 M 297.458 202.642 C 295.897 207.798, 292.360 213.232, 289.358 215.088 C 287.511 216.229, 286.009 217.464, 286.020 217.832 C 286.157 222.445, 288.423 232.901, 289.914 235.794 C 292.576 240.961, 297.517 245.708, 303.453 248.804 C 307.498 250.914, 309.889 251.437, 315.500 251.440 C 324.165 251.445, 328.614 249.953, 335.006 244.901 C 341.362 239.877, 345.092 232.729, 345.770 224.271 C 346.226 218.601, 346.002 217.597, 343.424 213.751 C 341.856 211.413, 340.531 209.399, 340.479 209.275 C 340.427 209.152, 336.948 209.751, 332.748 210.608 C 321.747 212.851, 313.138 210.689, 300.745 202.569 C 298.118 200.847, 298 200.850, 297.458 202.642 M 178.782 259.553 C 165.666 262.733, 153.696 271.465, 148.125 281.918 C 143.279 291.009, 142.037 298.754, 142.018 320 L 142.002 338.500 148.751 338.382 C 152.463 338.317, 162.137 338.204, 170.250 338.132 L 185 338 185 318 C 185 299.333, 185.133 297.867, 187 296 C 189.517 293.483, 190.492 293.492, 193.054 296.054 C 195.003 298.003, 195.094 299.081, 194.835 317.304 C 194.647 330.582, 194.924 337.146, 195.735 338.597 C 196.635 340.208, 196.628 340.995, 195.703 341.994 C 194.816 342.952, 194.810 343.119, 195.681 342.630 C 196.330 342.266, 197.187 342.494, 197.585 343.138 C 198.026 343.850, 197.876 344.042, 197.205 343.627 C 196.597 343.251, 195.612 343.857, 195.015 344.972 C 194.418 346.087, 193.332 347, 192.602 347 C 190.873 347, 182 356.487, 182 358.335 C 182 362.495, 182.082 362.500, 254.119 362.500 C 317.389 362.500, 323.065 362.364, 324.619 360.810 C 326.158 359.270, 326.170 358.914, 324.755 356.810 C 323.901 355.539, 321.587 352.762, 319.613 350.637 C 315.312 346.009, 311.544 340.123, 312.360 339.307 C 312.683 338.984, 325.589 338.696, 341.039 338.667 L 369.130 338.614 368.815 315.557 L 368.500 292.500 365.335 285.820 C 357.569 269.428, 341.821 259.717, 320.778 258.345 C 297.731 256.843, 278.307 266.668, 269.494 284.286 C 263.887 295.493, 263.313 295, 281.980 295 C 308.310 295, 310 296.463, 310 319.257 C 310 331.638, 309.742 334.081, 308.250 335.833 C 307.287 336.962, 305.825 337.966, 305 338.062 C 304.175 338.158, 280.453 338.184, 252.285 338.118 L 201.070 338 199.850 335.750 C 197.989 332.320, 198.628 304.252, 200.637 301.166 C 203.850 296.230, 208.979 295.046, 227.250 295.022 L 244 295 244 292.634 C 244 291.333, 242.401 287.073, 240.447 283.167 C 234.487 271.254, 223.388 262.954, 208.824 259.520 C 201.030 257.683, 186.429 257.699, 178.782 259.553 M 212.357 305.975 C 208.790 307.442, 207 311.018, 207 316.675 C 207 323.012, 208.412 326.411, 211.657 327.890 C 214.911 329.372, 291.720 329.437, 295.603 327.961 C 299.859 326.343, 300.933 324.119, 300.968 316.861 C 300.993 311.782, 300.551 309.667, 299.089 307.861 L 297.178 305.500 255.839 305.297 C 233.103 305.185, 213.536 305.490, 212.357 305.975 M 213.969 313.059 C 212.749 315.338, 213.536 320.595, 215.256 321.659 C 215.863 322.033, 233.707 322.235, 254.910 322.106 C 283.325 321.933, 293.660 321.560, 294.215 320.686 C 295.390 318.838, 295.131 313.531, 293.800 312.200 C 292.908 311.308, 282.652 311, 253.835 311 C 215.726 311, 215.052 311.035, 213.969 313.059 M 226.500 344 L 218.500 344.633 226.500 345.009 C 230.900 345.215, 235.625 345.281, 237 345.154 C 238.375 345.028, 242.950 344.829, 247.167 344.712 C 251.383 344.595, 255.171 344.163, 255.583 343.750 C 256.437 342.897, 238.492 343.051, 226.500 344 M 260.264 343.718 C 261.784 343.947, 264.034 343.941, 265.264 343.704 C 266.494 343.467, 265.250 343.279, 262.500 343.286 C 259.750 343.294, 258.744 343.488, 260.264 343.718 M 275.663 344.222 C 277.808 344.912, 280.063 344.912, 282.663 344.223 C 286.277 343.266, 286.093 343.207, 279.500 343.205 C 273.347 343.204, 272.883 343.327, 275.663 344.222 M 299.784 344.184 C 301.438 345.838, 304.608 345.908, 308.868 344.385 C 312.481 343.094, 312.464 343.088, 305.550 343.044 C 300.195 343.010, 298.872 343.272, 299.784 344.184" stroke="none" fill="#0a142d" fill-rule="evenodd"/></svg>